<?xml version="1.0" encoding="utf-8" ?><svg xmlns="http://www.w3.org/2000/svg" xmlns:xlink="http://www.w3.org/1999/xlink" width="1024" height="1024" viewBox="0 0 1024 1024"><path fill="#242731" transform="scale(2 2)" d="M94.9127 102.503C101.056 102.266 108.534 102.498 114.781 102.5L400.495 102.491C413.059 102.461 431.518 100.432 434.599 117.547C435.365 121.804 435.217 127.119 435.219 131.523L435.221 365.185C435.234 381.943 439.192 400.262 417.813 404.39L107.703 404.404C94.5805 404.438 79.9617 403.926 77.0636 386.739C76.4045 382.831 76.6728 376.765 76.6749 372.692L76.6803 139.055C76.6831 124.286 74.2589 104.732 94.9127 102.503ZM422.302 165.108C414.315 165.316 405.726 165.085 397.656 165.095L99.1544 165.089C96.999 165.083 91.836 164.907 89.944 165.108C89.7523 169.149 89.9271 174.264 89.9356 178.368L89.9351 369.548C89.9319 380.068 87.36 391.066 101.211 390.825L403.058 390.873C408.304 390.878 416.834 392.326 420.828 388.595C423.58 384.607 422.301 367.236 422.301 361.476L422.302 165.108ZM89.944 152.252L416.375 152.252L422.302 152.252L422.32 132.054C422.322 115.718 423.261 115.244 405.238 115.241L95.863 115.249C87.83 118.241 89.9031 125.555 89.9318 132.545L89.944 152.252Z"/><path fill="#5A91E7" transform="scale(2 2)" d="M151.628 178.938L390.871 178.936C397.202 178.938 408.893 177.447 408.867 186.955L408.855 360.87C408.986 378.638 405.803 377.841 389.143 377.821L361.125 377.81L119.896 377.819C113.35 377.819 103.473 379.826 103.515 370.409L103.538 191.431C103.541 175.387 108.711 178.93 123.316 178.928L151.628 178.938ZM155.657 304.746L173.557 304.771C175.626 304.774 181.096 305.092 182.736 304.593C189.295 302.596 187.991 296.675 183.446 293.564C164.543 293.768 143.669 292.483 125.138 293.564C117.07 295.322 120.441 317.675 120.428 325.394C120.418 330.836 119.03 339.755 126.969 339.765L224.529 339.737C229.821 339.738 251.806 342.692 247.47 332.025C245.522 327.232 235.734 329.016 231.413 328.948L155.657 328.948L155.657 304.746ZM199.811 361.309C204.5 360.017 205.424 353.173 201.018 351.132C197.947 349.709 177.806 350.118 173.598 350.274C167.622 351.757 166.574 357.789 171.64 360.642C173.911 361.922 195.644 361.315 199.811 361.309ZM240.714 361.309L244.542 361.309C247.513 358.965 249.035 355.776 246.545 352.354C244.011 348.872 225.449 350.285 221.123 350.274C214.465 350.6 210.883 356.061 215.585 360.066C217.927 362.06 222.683 361.345 225.677 361.342L240.714 361.309ZM129.602 350.274C128.262 351.102 126.441 352.415 126.168 354.092C124.759 362.743 133.81 361.345 139.094 361.337L153.559 361.309C162.766 359.088 160.063 349.65 152.63 350.131C146.101 350.553 138.805 349.812 132.433 350.274L129.602 350.274Z"/><path fill="#242731" transform="scale(2 2)" d="M367.656 332.059C383.261 330.769 396.711 342.644 389.308 357.416C383.955 368.097 376.398 367.235 366.502 367.188L287.188 367.179C280.166 367.064 274.137 367.705 268.556 362.466C258.452 352.982 263.75 335.171 277.261 332.609C281.288 331.845 286.352 332.058 290.535 332.056L367.656 332.059Z"/><path fill="#1556EA" transform="scale(2 2)" d="M280.729 345.464C284.287 345.265 290.087 345.45 293.799 345.452L353.332 345.46C359.747 345.456 368.503 344.913 374.887 346.125C379.168 346.937 377.787 352.752 373.41 354.488L282.479 354.493C274.637 354.463 274.439 347.282 280.729 345.464Z"/><path fill="#242731" transform="scale(2 2)" d="M341.343 270.298C339.86 276.768 335.046 276.501 329.652 276.481L291.61 276.47C287.359 276.475 279.765 276.946 275.838 275.685C257.268 269.721 260.972 241.692 280.83 241.406C286.205 241.3 291.638 241.287 296.973 241.285L356.088 241.28C365.799 241.282 378.316 239.211 385.551 246.145C394.315 254.545 392.698 267.722 382.591 274.194C378.049 277.076 352.663 280.072 350.976 270.298L341.343 270.298Z"/><path fill="#1556EA" transform="scale(2 2)" d="M279.265 254.568L364.435 254.573C367.164 254.572 370.516 254.596 373.145 254.503C377.522 254.347 379.03 260.338 376.262 262.079C368.469 266.979 352.457 257.093 350.976 270.298L341.343 270.298C340.599 262.815 336.681 263.298 330.504 263.345L292.212 263.386C289.128 263.385 282.018 263.746 279.222 262.809C275.58 261.589 276.086 256.94 279.265 254.568Z"/><path fill="#242731" transform="scale(2 2)" d="M341.343 223.392C340.196 232.608 332.213 230.601 325.242 230.552L290.717 230.544C281.581 230.553 273.182 231.597 267.218 223.233C259.766 212.782 265.905 196.105 279.398 195.401C285.535 195.109 291.793 195.259 297.965 195.259L361.811 195.259C372.457 195.252 382.443 193.409 388.386 203.486C396.937 217.983 384.405 233.368 368.502 230.543C361.937 229.377 352.437 233.762 350.976 223.392C347.78 223.418 344.535 223.48 341.343 223.392Z"/><path fill="#1556EA" transform="scale(2 2)" d="M337.439 217.536C324.319 217.373 310.879 217.535 297.725 217.539L286.889 217.548C271.995 217.593 276.206 208.661 282.376 208.427C288.909 208.179 295.424 208.273 301.948 208.271L361.302 208.276C365.371 208.279 369.899 207.93 373.921 208.529C378.121 209.154 379.724 214.165 376.045 216.501C372.606 218.684 359.376 217.171 354.791 217.536C352.304 219.13 351.638 220.522 350.976 223.392C347.78 223.418 344.535 223.48 341.343 223.392C340.599 220.447 340.21 219.172 337.439 217.536Z"/><path fill="#242731" transform="scale(2 2)" d="M341.343 314.744C340.37 318.823 338.087 320.983 333.823 321.009L289.503 321.006C285.733 321.023 279.483 321.574 276.036 320.636C257.469 315.583 261.203 286.597 280.114 286.335C285.624 286.196 291.121 286.245 296.629 286.244L358.651 286.252C364.004 286.254 369.787 286.062 375.067 286.366C394.564 287.49 402.206 322.933 366.449 321.004C360.639 320.691 352.564 322.701 350.976 314.744C349.066 314.467 343.974 314.946 341.343 314.744Z"/><path fill="#1556EA" transform="scale(2 2)" d="M341.343 314.744L341.31 314.378C340.399 305.245 327.909 308 320.558 307.999L291.121 308.004C288.521 308.006 280.996 308.365 279.15 307.589C275.021 305.852 276.102 299.386 281.9 299.374L372.598 299.409C378.717 299.465 379.615 308.148 371.705 308.071C363.759 307.995 352.043 304.975 350.976 314.744C349.066 314.467 343.974 314.946 341.343 314.744Z"/><path fill="#FDFDFD" transform="scale(2 2)" d="M126.381 190.262L163.184 190.249C169.218 190.249 175.21 190.128 181.295 190.412C186.327 190.52 188.654 198.157 184.111 200.508C181.413 201.905 175.223 201.504 172.087 201.502L155.657 201.473C155.385 203.753 155.352 205.189 155.657 207.435L221.138 207.428C224.881 207.427 240.824 206.798 234.709 215.817C232.286 219.391 226.398 218.32 222.222 218.299L155.657 218.277C155.468 220.126 155.545 221.549 155.657 223.392L155.571 224.075C156.469 225.361 219.252 224.721 226.841 224.737C230.462 224.745 241.677 223.984 244.33 225.319C248.919 227.627 248.646 234.645 243.179 235.586C239.776 236.171 234.734 235.726 231.184 235.727L153.936 235.734C146.713 235.736 120.087 239.269 119.747 230.345C119.314 218.994 119.443 207.383 119.693 196.024C119.781 192.022 122.787 190.586 126.381 190.262Z"/><path fill="#5A91E7" transform="scale(2 2)" d="M134.856 201.473C139.894 201.204 144.262 200.234 144.508 206.785C144.769 213.734 147.386 224.578 138.909 224.724C126.737 225.651 130.167 220.781 129.561 211.045C129.23 205.739 128.826 201.741 134.856 201.473Z"/><path fill="#5A91E7" transform="scale(2 2)" d="M134.856 304.746C137.042 304.481 143.049 303.302 144.175 306.103C145.027 308.225 145.27 326.269 144.156 327.871C143.525 328.779 141.947 328.822 140.952 328.948C138.166 329.038 134.306 329.567 132.115 327.932C130.286 324.408 130.57 306.745 131.984 305.409C132.805 304.634 133.807 304.714 134.856 304.746Z"/><path fill="#FDFDFD" transform="scale(2 2)" d="M166.111 310.8L209.636 310.793C216.926 310.793 224.175 310.696 231.46 310.967C238.289 311.221 241.405 321.927 229.48 321.833L187.501 321.844C181.721 321.844 165.784 322.288 160.791 320.996C154.111 316.278 158.914 311.033 166.111 310.8Z"/><path fill="#FDFDFD" transform="scale(2 2)" d="M129.239 268.253L146.682 268.242C149.855 268.224 153.634 268.045 156.714 268.253C160.769 271.613 161.001 277.699 155.657 279.598L128.335 279.598C123.334 276.296 123.146 270.205 129.239 268.253Z"/><path fill="#FDFDFD" transform="scale(2 2)" d="M174.619 268.253C178.766 268.074 199.052 267.716 201.717 269.018C206.848 271.523 204.364 278.169 199.811 279.598C193.306 279.951 186.277 279.429 179.721 279.627C173.13 279.826 169.538 279.576 169.778 271.934C171.139 269.669 172.186 269.073 174.619 268.253Z"/><path fill="#FDFDFD" transform="scale(2 2)" d="M129.239 246.819C134.053 246.778 152.905 246.209 156.196 247.294C161.481 249.036 160.266 256.361 155.657 258.156C148.845 258.432 134.498 258.73 128.133 257.762C123.714 256.852 122.916 249.302 129.239 246.819Z"/><path fill="#FDFDFD" transform="scale(2 2)" d="M176.257 246.819L190.192 246.823C193.953 246.795 198.933 246.183 202.204 248.032C205.728 250.025 205.655 257.639 197.845 258.156C193.137 258.166 174.384 258.995 171.683 257.011C167.479 253.924 169.465 247.506 176.257 246.819Z"/><path fill="#FDFDFD" transform="scale(2 2)" d="M221.123 268.253C225.452 268.256 242.035 267.492 244.95 268.987C250.144 271.652 247.873 278.256 242.653 279.598C238.502 279.591 219.902 280.313 217.445 278.744C212.458 275.56 214.26 269.27 221.123 268.253Z"/><path fill="#FDFDFD" transform="scale(2 2)" d="M225.55 246.819C229.639 246.831 243.17 245.811 245.889 248.457C248.073 250.583 248.154 254.525 245.953 256.672C243.771 258.8 239.449 258.205 236.625 258.156C232.415 258.168 219.583 259.02 216.835 256.77C214.508 254.864 214.165 251.095 216.216 248.871C218.381 246.523 222.607 246.905 225.55 246.819Z"/><path fill="#242731" transform="scale(2 2)" d="M163.616 127.242C166.269 127.244 172.146 126.865 174.303 127.796C180.346 130.407 179.767 138.377 173.598 140.584C171.384 140.708 164.716 140.911 162.934 140.179C156.512 137.54 157.561 129.707 163.616 127.242Z"/><path fill="#242731" transform="scale(2 2)" d="M105.57 127.242C108.041 127.19 114.32 126.836 116.25 127.682C121.721 130.08 121.8 138.511 115.547 140.584C113.233 140.769 107.506 140.942 105.525 140.234C99.1792 137.969 99.7385 130.004 105.57 127.242Z"/><path fill="#242731" transform="scale(2 2)" d="M135.583 127.242C153.79 124.649 151.379 138.993 143.724 140.584C141.16 140.575 134.777 140.759 132.899 139.54C128.151 136.457 129.25 128.084 135.583 127.242Z"/></svg>