<?xml version="1.0" encoding="UTF-8" standalone="no"?>
<svg
   width="1024"
   height="1024"
   viewBox="0 0 1024 1024"
   version="1.1"
   id="svg10"
   sodipodi:docname="pipx-repository-browser(1).svg"
   inkscape:version="1.4.3 (0d15f75042, 2025-12-25)"
   inkscape:export-filename="logo.png"
   inkscape:export-xdpi="24"
   inkscape:export-ydpi="24"
   xmlns:inkscape="http://www.inkscape.org/namespaces/inkscape"
   xmlns:sodipodi="http://sodipodi.sourceforge.net/DTD/sodipodi-0.dtd"
   xmlns="http://www.w3.org/2000/svg"
   xmlns:svg="http://www.w3.org/2000/svg">
  <defs
     id="defs10" />
  <sodipodi:namedview
     id="namedview10"
     pagecolor="#ffffff"
     bordercolor="#000000"
     borderopacity="0.25"
     inkscape:showpageshadow="2"
     inkscape:pageopacity="0.0"
     inkscape:pagecheckerboard="0"
     inkscape:deskcolor="#d1d1d1"
     inkscape:zoom="0.78417969"
     inkscape:cx="511.36239"
     inkscape:cy="512"
     inkscape:window-width="1853"
     inkscape:window-height="1011"
     inkscape:window-x="0"
     inkscape:window-y="0"
     inkscape:window-maximized="1"
     inkscape:current-layer="svg10" />
  <g
     id="g12"
     transform="matrix(1.2730628,0,0,1.2730628,-140.11179,-132.93717)">
    <path
       fill="#576172"
       transform="scale(2)"
       d="m 91.905,76.1869 c 7.5025,-0.1582 15.624,0.0028 23.192,0.0028 l 288.491,-0.0095 c 12.268,0.0022 24.65,-0.9382 34.387,8.0419 14.332,13.2176 11.775,28.4639 11.774,45.9369 v 258.18 c -0.001,4.228 0.147,8.792 -0.189,12.984 -1.231,15.335 -14.693,28.402 -30.122,29.059 -6.892,0.222 -15.122,0.004 -22.103,0.004 l -291.143,0.01 C 95.0173,430.422 86.545,431.58 76.8775,424.746 63.07,414.986 62.5251,403.758 62.5252,388.849 L 62.5323,126.428 C 62.5233,114.131 60.5744,100.507 68.4414,90.0133 74.8703,81.4379 81.6275,77.9072 91.905,76.1869 Z"
       id="path11"
       style="display:inline;fill:#ffffff;fill-opacity:1"
       inkscape:label="background"
       sodipodi:nodetypes="cccccccccccccsc" />
    <g
       id="g11"
       sodipodi:insensitive="true">
      <path
         fill="#576172"
         transform="scale(2)"
         d="m 91.905,76.1869 c 7.5025,-0.1582 15.624,0.0028 23.192,0.0028 l 288.491,-0.0095 c 12.268,0.0022 24.65,-0.9382 34.387,8.0419 14.332,13.2176 11.775,28.4639 11.774,45.9369 v 258.18 c -0.001,4.228 0.147,8.792 -0.189,12.984 -1.231,15.335 -14.693,28.402 -30.122,29.059 -6.892,0.222 -15.122,0.004 -22.103,0.004 l -291.143,0.01 C 95.0173,430.422 86.545,431.58 76.8775,424.746 63.07,414.986 62.5251,403.758 62.5252,388.849 L 62.5323,126.428 C 62.5233,114.131 60.5744,100.507 68.4414,90.0133 74.8703,81.4379 81.6275,77.9072 91.905,76.1869 Z M 423.47,404.401 c 4.006,-5.348 3.187,-9.969 3.191,-16.326 l -0.01,-219.321 H 85.2786 L 85.2733,388.4 c 0.0082,18.67 1.4614,19.374 21.4397,19.369 l 307.69,-0.014 c 4.147,-0.011 5.843,-0.649 9.067,-3.354 z M 85.2786,146.021 c 11.3633,0.347 24.8854,-10e-4 36.3884,-10e-4 l 296.511,10e-4 c 3.122,-0.154 5.356,-0.117 8.473,0 l 0.02,-25.309 c 0.01,-19.107 1.401,-21.5571 -20.337,-21.5529 L 101.132,99.1179 c -1.1829,-0.0097 -5.7638,-0.1356 -6.7133,0.0433 -11.2981,1.3458 -9.1706,13.0048 -9.1661,21.4078 z"
         id="path1"
         style="display:inline" />
      <path
         fill="#d3d3d4"
         transform="scale(2)"
         d="m 250.887,212.076 c 17.844,-0.417 36.041,0.188 53.912,0.113 14.538,-0.06 23.909,12.61 23.401,26.453 l 0.017,90.503 c -0.012,20.65 -3.822,37.66 -28.655,37.716 l -77.971,-0.02 -1.13,0.004 c -27.141,0.082 -36.416,-7.206 -36.433,-34.888 l -0.004,-83.594 c 0.015,-33.784 10.037,-36.3 41.663,-36.3 z m -44.645,37.592 v 95.313 c 33.555,-0.468 67.344,0.546 100.881,0 v -95.313 h -34.96 c -6.103,-0.007 -12.039,-0.284 -18.137,0 z"
         id="path2"
         style="display:inline" />
      <path
         fill="#576172"
         transform="scale(2)"
         d="m 230.093,304.604 c 1.874,-0.169 6.143,-0.016 8.205,-0.014 l 33.423,-0.014 c 3.077,-0.007 6.214,-0.101 9.276,0.105 13.473,0.905 14.068,18.538 1.067,21.517 l -34.44,0.006 c -5.413,0.003 -10.813,0.112 -16.253,-0.071 -13.069,-0.442 -13.714,-19.327 -1.278,-21.529 z"
         id="path3"
         style="display:inline" />
      <path
         fill="#b2b4ba"
         transform="scale(2)"
         d="m 221.591,366.841 -1.13,0.004 c -27.141,0.082 -36.416,-7.206 -36.433,-34.888 l -0.004,-83.594 c 0.015,-33.784 10.037,-36.3 41.663,-36.3 l 25.2,0.013 c 4.071,0.243 9.882,0.018 14.093,0 -13.93,9.764 -10.992,22.501 -10.954,37.592 h -47.784 v 95.313 c 2.604,7.206 4.563,12.491 10.489,17.875 1.105,1.005 4.194,3.033 4.86,3.985 z"
         id="path4"
         style="display:inline" />
      <path
         fill="#f8c459"
         transform="scale(2)"
         d="m 162.351,243.339 c 8.099,0.504 12.552,9.81 8.995,15.819 -3.299,5.573 -10.781,10.961 -14.985,16.354 11.98,-0.765 21.872,7.099 13.758,17.685 -3.64,4.749 -8.529,4.216 -13.758,4.917 4.23,3.834 11.122,9.816 14.353,14.354 4.564,6.409 0.235,15.711 -8.363,16.317 -7.313,-0.11 -11.016,-5.516 -15.848,-10.282 L 132.99,305.1 c -6.047,-6.096 -20.411,-17.269 -10.707,-26.859 11.396,-11.261 22.333,-23.381 34.41,-33.864 0.867,-0.752 4.483,-0.953 5.658,-1.038 z"
         id="path5"
         style="display:inline" />
      <path
         fill="#e17852"
         transform="scale(2)"
         d="m 348.116,243.339 c 10.867,-0.745 20.767,14.716 28.658,22.536 12.486,13.665 25.426,16.013 8.52,32.476 -6.012,5.855 -27.763,29.062 -34.134,30.434 -3.141,-0.378 -6.895,-1.978 -8.817,-4.414 -8.028,-10.179 7.078,-21.957 15.026,-28.39 -4.731,-0.148 -9.845,1.212 -13.883,-2.337 -5.402,-4.746 -4.456,-14.262 2.506,-16.972 2.426,-0.945 8.32,-0.486 11.377,-0.571 -4.88,-5.913 -10.472,-10.986 -15.624,-16.579 -5.118,-5.556 -0.316,-13.818 6.371,-16.183 z"
         id="path6"
         style="display:inline" />
      <path
         fill="#576172"
         transform="scale(2)"
         d="m 328.217,111.384 c 12.904,-0.281 27.022,0.002 40.006,-0.001 l 17.284,-0.005 c 6.907,-0.001 18.608,-1.511 21.154,7.17 2.303,7.855 -0.707,13.322 -8.331,15.716 -1.68,0.194 -6.035,0.014 -8.027,0.006 l -44.432,0.002 c -4.863,0 -9.714,0.023 -14.585,-0.039 -13.883,-0.028 -16.928,-17.953 -3.069,-22.849 z"
         id="path7"
         style="display:inline" />
      <path
         fill="#576172"
         transform="scale(2)"
         d="m 189.821,112.322 c 3.872,-0.918 7.938,0.319 10.643,3.237 2.706,2.918 3.632,7.066 2.424,10.858 -1.208,3.791 -4.362,6.64 -8.257,7.456 -5.913,1.239 -11.724,-2.505 -13.04,-8.402 -1.317,-5.896 2.351,-11.756 8.23,-13.149 z"
         id="path8"
         style="display:inline" />
      <path
         fill="#f8c459"
         transform="scale(2)"
         d="m 112.172,112.452 c 5.886,-1.201 11.625,2.622 12.784,8.517 1.16,5.895 -2.703,11.606 -8.606,12.725 -5.845,1.107 -11.488,-2.71 -12.636,-8.547 -1.148,-5.836 2.629,-11.506 8.458,-12.695 z"
         id="path9"
         style="display:inline" />
      <path
         fill="#96b983"
         transform="scale(2)"
         d="m 150.399,112.526 c 5.808,-1.308 11.574,2.347 12.869,8.158 1.296,5.81 -2.372,11.569 -8.185,12.852 -5.796,1.279 -11.533,-2.375 -12.825,-8.168 -1.291,-5.793 2.351,-11.539 8.141,-12.842 z"
         id="path10"
         style="display:inline" />
    </g>
  </g>
</svg>
